<svg id="Layer_1" data-name="Layer 1" xmlns="http://www.w3.org/2000/svg" xmlns:xlink="http://www.w3.org/1999/xlink" viewBox="0 0 185.29 33.47"><defs><style>.cls-1{fill:url(#linear-gradient);}.cls-2{fill:url(#linear-gradient-2);}.cls-3{fill:url(#linear-gradient-3);}.cls-4{fill:url(#linear-gradient-4);}.cls-5{fill:url(#linear-gradient-5);}.cls-6{fill:url(#linear-gradient-6);}.cls-7{fill:url(#linear-gradient-7);}.cls-8{fill:url(#linear-gradient-8);}.cls-9{fill:url(#linear-gradient-9);}.cls-10{fill:url(#linear-gradient-10);}.cls-11{fill:url(#linear-gradient-11);}</style><linearGradient id="linear-gradient" x1="9" y1="16.73" x2="183.5" y2="16.98" gradientUnits="userSpaceOnUse"><stop offset="0" stop-color="#8259e8"/><stop offset="1" stop-color="#5470e6"/></linearGradient><linearGradient id="linear-gradient-2" x1="8.98" y1="28.36" x2="183.48" y2="28.61" xlink:href="#linear-gradient"/><linearGradient id="linear-gradient-3" x1="9.02" y1="4.91" x2="183.52" y2="5.16" xlink:href="#linear-gradient"/><linearGradient id="linear-gradient-4" x1="9" y1="16.98" x2="183.5" y2="17.23" xlink:href="#linear-gradient"/><linearGradient id="linear-gradient-5" x1="9" y1="16.94" x2="183.5" y2="17.19" xlink:href="#linear-gradient"/><linearGradient id="linear-gradient-6" x1="9" y1="16.91" x2="183.5" y2="17.16" xlink:href="#linear-gradient"/><linearGradient id="linear-gradient-7" x1="9" y1="16.88" x2="183.5" y2="17.13" xlink:href="#linear-gradient"/><linearGradient id="linear-gradient-8" x1="9" y1="16.87" x2="183.5" y2="17.12" xlink:href="#linear-gradient"/><linearGradient id="linear-gradient-9" x1="9" y1="16.91" x2="183.5" y2="17.16" xlink:href="#linear-gradient"/><linearGradient id="linear-gradient-10" x1="9" y1="16.81" x2="183.5" y2="17.06" xlink:href="#linear-gradient"/><linearGradient id="linear-gradient-11" x1="9" y1="16.8" x2="183.5" y2="17.05" xlink:href="#linear-gradient"/></defs><title>logo</title><path class="cls-1" d="M32.47,14.71H22.06L33,3.53h0A2,2,0,0,0,33,.7l-.1-.1h0A2,2,0,0,0,30.1.6L18.63,12.32h0a2,2,0,0,1-2.83,0L4.36.6h0A2,2,0,0,0,1.49.6l-.1.11a2,2,0,0,0,0,2.81l11,11.19H2a2,2,0,0,0-2,2H0a2,2,0,0,0,2,2h10.4L1.42,30a2,2,0,0,0,0,2.82l.1.11h0a2,2,0,0,0,2.83,0L15.85,21.17h0a2,2,0,0,1,2.83,0L30.11,32.89h0a2,2,0,0,0,2.83,0l.1-.1h0A2,2,0,0,0,33,30L22,18.71H32.47a2,2,0,0,0,0-4Z" transform="translate(0 -0.01)"/><path class="cls-2" d="M17.32,24.71H17a3.51,3.51,0,0,0-3.25,3.75v0a3.54,3.54,0,0,0,7.08,0,3.41,3.41,0,0,0-3.47-3.78Z" transform="translate(0 -0.01)"/><path class="cls-3" d="M17.25,8.57A3.53,3.53,0,0,0,20.79,5c0-.14,0-.29,0-.43a3.42,3.42,0,0,0-3.49-3.33H17A3.51,3.51,0,0,0,13.71,5V5A3.53,3.53,0,0,0,17.25,8.57Z" transform="translate(0 -0.01)"/><path class="cls-4" d="M56.36,18.53a15.12,15.12,0,0,0-5-2.08,14.24,14.24,0,0,1-5-2.06,3.63,3.63,0,0,1-.91-1h0a3.78,3.78,0,0,1,1.15-5.22,7.47,7.47,0,0,1,4.52-1.25A6.61,6.61,0,0,1,55.6,8.46a5,5,0,0,1,1.74,3.93h.79a5.91,5.91,0,0,0-3.4-5.48,8.31,8.31,0,0,0-3.67-.79A8.43,8.43,0,0,0,46,7.55,4.48,4.48,0,0,0,44,11.31a4.51,4.51,0,0,0,.64,2.48,5.55,5.55,0,0,0,2,1.79,19,19,0,0,0,4.13,1.53A21.91,21.91,0,0,1,55,18.59a5.39,5.39,0,0,1,2,1.67,4,4,0,0,1,.63,2.29,3.86,3.86,0,0,1-1.79,3.31,7.81,7.81,0,0,1-4.62,1.29,8.38,8.38,0,0,1-5.09-1.44,4.75,4.75,0,0,1-1.93-4h-.79a5.61,5.61,0,0,0,3.7,5.53A10.68,10.68,0,0,0,51.2,28a9.93,9.93,0,0,0,3.73-.67,5.73,5.73,0,0,0,2.57-1.91A4.94,4.94,0,0,0,56.36,18.53Z" transform="translate(0 -0.01)"/><path class="cls-5" d="M73.79,7.28a8.17,8.17,0,0,0-8.4,0,7.41,7.41,0,0,0-2.81,3.28,11.38,11.38,0,0,0-1,4.88V18.5a10.13,10.13,0,0,0,2.21,6.88,7.29,7.29,0,0,0,5.8,2.55,7.32,7.32,0,0,0,7-4.44,11.49,11.49,0,0,0,1-4.87l0-3.18a11.34,11.34,0,0,0-1-4.87A7.58,7.58,0,0,0,73.79,7.28Zm1.08,17.56a6.49,6.49,0,0,1-5.26,2.32,7,7,0,0,1-3.82-1.05,6.76,6.76,0,0,1-2.52-3,10.76,10.76,0,0,1-.88-4.48V15.52a9.51,9.51,0,0,1,2-6.29c.15-.16.29-.3.45-.45a7.13,7.13,0,0,1,10,.45,9.3,9.3,0,0,1,2,6.17v3.11A9.61,9.61,0,0,1,74.87,24.84Z" transform="translate(0 -0.01)"/><polygon class="cls-6" points="82.42 27.64 83.2 27.64 83.2 17.19 94.08 17.19 94.08 16.37 83.2 16.37 83.2 7.19 95.57 7.19 95.57 6.4 82.42 6.4 82.42 27.64"/><polygon class="cls-7" points="97.68 7.19 105.41 7.19 105.41 27.64 106.19 27.64 106.19 7.19 113.93 7.19 113.93 6.4 97.68 6.4 97.68 7.19"/><path class="cls-8" d="M124.82,7.66q5.2,0,5.87,5.41h1.81A7.66,7.66,0,0,0,130.2,8a7.61,7.61,0,0,0-5.38-1.83,7.78,7.78,0,0,0-4.3,1.19,7.59,7.59,0,0,0-2.87,3.37,11.92,11.92,0,0,0-1,5v2.7a11.73,11.73,0,0,0,1,4.95,7.7,7.7,0,0,0,2.81,3.35,7.48,7.48,0,0,0,4.18,1.22,8,8,0,0,0,5.42-1.78A7.66,7.66,0,0,0,132.45,21l-1.76.11a6.45,6.45,0,0,1-1.76,4,6,6,0,0,1-4.25,1.34,5.34,5.34,0,0,1-4.51-2.18,9.44,9.44,0,0,1-1.67-5.87v-2.6a9.31,9.31,0,0,1,1.72-6A5.58,5.58,0,0,1,124.82,7.66Z" transform="translate(0 -0.01)"/><path class="cls-9" d="M142.56,6.48l-8,21.23h1.88l2.18-6h9.64l2.15,6h1.86l-8-21.23Zm-3.38,13.71,4.26-11.56,4.26,11.56Z" transform="translate(0 -0.01)"/><polygon class="cls-10" points="157.26 6.4 155.45 6.4 155.45 27.64 167.79 27.64 167.79 26.11 157.26 26.11 157.26 6.4"/><path class="cls-11" d="M181.72,25.13a6,6,0,0,1-4.24,1.34A5.34,5.34,0,0,1,173,24.29a9.44,9.44,0,0,1-1.67-5.87v-2.6a9.38,9.38,0,0,1,1.71-6,5.6,5.6,0,0,1,4.61-2.16c3.47,0,5.42,1.81,5.87,5.41h1.81A7.71,7.71,0,0,0,183,8a7.62,7.62,0,0,0-5.39-1.83,7.72,7.72,0,0,0-4.28,1.19,7.51,7.51,0,0,0-2.86,3.37,11.92,11.92,0,0,0-1,5v2.7a11.73,11.73,0,0,0,1,4.95,7.64,7.64,0,0,0,2.81,3.35,7.48,7.48,0,0,0,4.18,1.22,7.93,7.93,0,0,0,5.41-1.78A7.66,7.66,0,0,0,185.27,21l-1.79.11A6.45,6.45,0,0,1,181.72,25.13Z" transform="translate(0 -0.01)"/></svg>