<svg id="Layer_1" data-name="Layer 1" xmlns="http://www.w3.org/2000/svg" viewBox="0 0 60.68 45.46"><title>delete</title><path d="M60.67,6.9c-.06-.31-.05-.64-.12-1A7.59,7.59,0,0,0,58.2,2a7.4,7.4,0,0,0-5.07-2H20.43a2.83,2.83,0,0,0-2.29,1c-1.3,1.5-2.62,3-3.92,4.48l-4.41,5L5.39,15.49c-1.53,1.74-3,3.49-4.58,5.22A2.76,2.76,0,0,0,0,22.25v.91a2.15,2.15,0,0,0,.52,1.18C1,24.9,1.52,25.45,2,26l2.63,3,2.66,3,2.64,3,2.67,3,2.64,3,3,3.41a2.83,2.83,0,0,0,2.25,1H53.1a6.73,6.73,0,0,0,1-.07,7.61,7.61,0,0,0,6.1-4.73,6.59,6.59,0,0,0,.48-2V38.2a.39.39,0,0,1,0-.3V7.52a.39.39,0,0,1,0-.3Zm-5.05,31a2.53,2.53,0,0,1-2.38,2.67H21.62a.49.49,0,0,1-.41-.18q-6.45-7.4-12.92-14.78L6.05,23c-.13-.15-.13-.23,0-.38L13.62,14l7.61-8.71a.48.48,0,0,1,.41-.19H53a2.54,2.54,0,0,1,2.68,2.37,1.5,1.5,0,0,1,0,.3Z" transform="translate(0 0.05)" style="fill:#fff"/><path d="M47.3,28.63a2.52,2.52,0,0,1-3.58,3.56c-1.23-1.21-2.44-2.44-3.66-3.66-.66-.65-1.32-1.3-2-2-.14-.14-.21-.14-.35,0l-5.59,5.6a2.53,2.53,0,0,1-3.28.31,2.62,2.62,0,0,1-1.07-2.21,2.54,2.54,0,0,1,.79-1.69c1.86-1.85,3.71-3.72,5.58-5.57.15-.15.13-.22,0-.36L28.54,17a2.51,2.51,0,0,1-.05-3.56,2.48,2.48,0,0,1,1.19-.69,2.41,2.41,0,0,1,2.43.68c1.26,1.24,2.51,2.5,3.76,3.75L37.71,19c.14.15.21.16.36,0,1.87-1.88,3.74-3.76,5.61-5.62a2.52,2.52,0,0,1,4.19,1A2.42,2.42,0,0,1,47.26,17c-1.86,1.88-3.74,3.75-5.62,5.61-.16.17-.13.24,0,.39C43.55,24.87,45.43,26.75,47.3,28.63Z" transform="translate(0 0.05)" style="fill:#fff"/></svg>