<svg id="Layer_1" data-name="Layer 1" xmlns="http://www.w3.org/2000/svg" viewBox="0 0 105.26 90.89"><title>square-root</title><path d="M105.26,7.06a17.67,17.67,0,0,1-1.08,2.18,6,6,0,0,1-5.32,2.54H74.2a1.7,1.7,0,0,0-1.84,1.14q-17.25,37-34.56,74c-1.45,3.1-4,4.53-6.88,3.89a6.66,6.66,0,0,1-3.85-2.72C21.25,80.51,15.4,73,9.6,65.37a2.06,2.06,0,0,0-2-1c-1.93.11-3.83,0-5.44-1.31a5.82,5.82,0,0,1-1.92-6.2,5.7,5.7,0,0,1,5.1-4.12c2.22-.1,4.45-.08,6.68,0a5.93,5.93,0,0,1,4.57,2.6q6.8,8.83,13.6,17.65c.21.27.43.53.7.88.2-.4.38-.71.53-1q16-34.29,32.05-68.59A6.58,6.58,0,0,1,70.08.09c9.18.08,18.36.12,27.54,0,3.72-.06,6.4,1,7.6,4.77Z" transform="translate(0 -0.07)" style="fill:#fff"/></svg>