<svg id="Layer_1" data-name="Layer 1" xmlns="http://www.w3.org/2000/svg" viewBox="0 0 60.67 45.65"><defs><style>.cls-1{fill:#060606;}.cls-2{fill:#070706;}</style></defs><title>delete</title><path class="cls-1" d="M321.05,362.38c-.06-.31-.05-.64-.12-.95a7.57,7.57,0,0,0-2.35-4,7.4,7.4,0,0,0-5.07-2h-32.7a2.83,2.83,0,0,0-2.29,1c-1.3,1.5-2.62,3-3.92,4.48l-4.41,5-4.42,5.06c-1.53,1.74-3,3.49-4.58,5.22a2.76,2.76,0,0,0-.81,1.54v.91a2.15,2.15,0,0,0,.52,1.18c.47.56,1,1.11,1.44,1.66l2.63,3c.88,1,1.77,2,2.66,3l2.64,3,2.67,3,2.64,3,3,3.41a2.82,2.82,0,0,0,2.25,1h32.65a6.77,6.77,0,0,0,1-.07,7.62,7.62,0,0,0,6.1-4.73,6.59,6.59,0,0,0,.48-2.05v-.36a.39.39,0,0,1,0-.3V363a.39.39,0,0,1,0-.3ZM316,393.33a2.53,2.53,0,0,1-2.66,2.67H282a.49.49,0,0,1-.41-.18q-6.45-7.4-12.92-14.78l-2.24-2.55c-.13-.15-.13-.23,0-.38L274,369.5l7.61-8.71a.49.49,0,0,1,.41-.19h31.32a2.53,2.53,0,0,1,2.68,2.67Z" transform="translate(-260.38 -355.48)"/><path class="cls-2" d="M307.68,384.11a2.52,2.52,0,0,1-3.58,3.56c-1.23-1.21-2.44-2.44-3.66-3.66-.66-.65-1.32-1.3-2-2-.14-.14-.21-.14-.35,0l-5.59,5.6a2.52,2.52,0,0,1-3.28.31,2.61,2.61,0,0,1-1.07-2.21,2.55,2.55,0,0,1,.79-1.69c1.86-1.85,3.71-3.72,5.58-5.57.15-.15.13-.22,0-.36l-5.6-5.59a2.52,2.52,0,0,1,1.14-4.25,2.41,2.41,0,0,1,2.43.68c1.26,1.24,2.51,2.5,3.76,3.75l1.84,1.84c.14.15.21.16.36,0,1.87-1.88,3.74-3.76,5.61-5.62a2.52,2.52,0,0,1,4.19,1,2.4,2.4,0,0,1-.61,2.56c-1.86,1.88-3.74,3.75-5.62,5.61-.16.17-.13.24,0,.39Q304.88,381.29,307.68,384.11Z" transform="translate(-260.38 -355.48)"/></svg>