<svg id="Layer_1" data-name="Layer 1" xmlns="http://www.w3.org/2000/svg" viewBox="0 0 387.69 70.02"><defs><style>.cls-1{fill:#fff;}</style></defs><title>logo</title><path class="cls-1" d="M325.43,403.41l24,24.52a4.21,4.21,0,0,0,6,0l24-24.52a4.19,4.19,0,0,1,6,0l.21.21a4.2,4.2,0,0,1,0,5.91l-24.27,24.71a4.2,4.2,0,0,0,0,5.88l24.27,24.72a4.2,4.2,0,0,1,0,5.91l-.21.21a4.19,4.19,0,0,1-6,0l-24-24.52a4.21,4.21,0,0,0-6,0l-24,24.52a4.2,4.2,0,0,1-6,0l-.22-.22a4.21,4.21,0,0,1,0-5.9l24.16-24.72a4.19,4.19,0,0,0,0-5.87l-24.16-24.73a4.2,4.2,0,0,1,0-5.89l.22-.22A4.19,4.19,0,0,1,325.43,403.41Z" transform="translate(-316.31 -402.15)"/><path class="cls-1" d="M316.31,437.15h0a4.2,4.2,0,0,1,4.2-4.19h63.77a4.2,4.2,0,0,1,4.2,4.19h0a4.2,4.2,0,0,1-4.2,4.2H320.51A4.2,4.2,0,0,1,316.31,437.15ZM345,412.68c0-4.61,3.08-7.83,7.55-7.83s7.27,3.22,7.27,7.83c0,4.34-2.79,7.69-7.4,7.69S345,417,345,412.68Zm0,49.09c0-4.62,3.08-7.84,7.55-7.84s7.27,3.22,7.27,7.84c0,4.33-2.79,7.69-7.4,7.69S345,466.1,345,461.77Z" transform="translate(-316.31 -402.15)"/><path class="cls-1" d="M436.81,449.34a8.35,8.35,0,0,0-1.33-4.81,11.26,11.26,0,0,0-4.18-3.48,44.71,44.71,0,0,0-8.62-3.1,40.11,40.11,0,0,1-8.65-3.2A11.56,11.56,0,0,1,409.8,431a9.58,9.58,0,0,1-1.34-5.19,9.33,9.33,0,0,1,4.09-7.86c2.73-2,6.27-3,10.65-3a17.21,17.21,0,0,1,7.67,1.66,12.5,12.5,0,0,1,5.27,4.67,12.64,12.64,0,0,1,1.86,6.79h-1.65a10.5,10.5,0,0,0-3.66-8.22,13.75,13.75,0,0,0-9.49-3.25,15.8,15.8,0,0,0-9.47,2.61,7.93,7.93,0,0,0-.48,13c2.1,1.63,5.56,3.06,10.38,4.32s8.35,2.7,10.58,4.34a10,10,0,0,1,4.28,8.42,9.8,9.8,0,0,1-1.9,5.94,12,12,0,0,1-5.37,4,20.59,20.59,0,0,1-7.81,1.4,22.28,22.28,0,0,1-8.66-1.6A11.76,11.76,0,0,1,407,447.44h1.65a10,10,0,0,0,4.08,8.49q4.1,3,10.65,3a16.26,16.26,0,0,0,9.61-2.67A8.15,8.15,0,0,0,436.81,449.34Z" transform="translate(-316.31 -402.15)"/><path class="cls-1" d="M478.61,441.1a24,24,0,0,1-2.06,10.2,15.79,15.79,0,0,1-5.87,6.87,16,16,0,0,1-8.79,2.42,15.32,15.32,0,0,1-12.15-5.33q-4.64-5.34-4.63-14.41v-6.4a24,24,0,0,1,2.06-10.2,15.73,15.73,0,0,1,5.89-6.88,17.16,17.16,0,0,1,17.57,0,15.82,15.82,0,0,1,5.9,6.9,23.8,23.8,0,0,1,2.08,10.18ZM477,434.38q0-8.06-4.09-12.92a14.91,14.91,0,0,0-22,0q-4.08,4.85-4.08,13.17v6.5a22.53,22.53,0,0,0,1.84,9.38,14.19,14.19,0,0,0,5.26,6.27,14.52,14.52,0,0,0,8,2.2,13.6,13.6,0,0,0,11-4.85q4.07-4.86,4.06-13.25Z" transform="translate(-316.31 -402.15)"/><path class="cls-1" d="M513.18,438.14H490.42V460h-1.65V415.56h27.52v1.65H490.42v19.22h22.76Z" transform="translate(-316.31 -402.15)"/><path class="cls-1" d="M554.71,417.21H538.53V460h-1.64V417.21H520.72v-1.65h34Z" transform="translate(-316.31 -402.15)"/><path class="cls-1" d="M593.46,446.13q-.76,7-5,10.74c-2.84,2.49-6.62,3.72-11.34,3.72a15.65,15.65,0,0,1-8.74-2.47,16.06,16.06,0,0,1-5.87-7,24.82,24.82,0,0,1-2.11-10.36V435a25.07,25.07,0,0,1,2.08-10.5,15.9,15.9,0,0,1,6-7.06,16.25,16.25,0,0,1,9-2.49q7.14,0,11.27,3.84t4.81,10.65h-3.79q-1.39-11.31-12.29-11.32a11.66,11.66,0,0,0-9.63,4.52q-3.59,4.51-3.59,12.49v5.44q0,7.69,3.5,12.27a11.23,11.23,0,0,0,9.44,4.58q5.89,0,8.88-2.82t3.69-8.47Z" transform="translate(-316.31 -402.15)"/><path class="cls-1" d="M626.56,447.51H606.39L601.82,460h-3.94l16.81-44.42h3.57L635.07,460h-3.9Zm-19-3.18h17.82l-8.91-24.19Z" transform="translate(-316.31 -402.15)"/><path class="cls-1" d="M645.39,456.81h21.93V460H641.6V415.56h3.79Z" transform="translate(-316.31 -402.15)"/><path class="cls-1" d="M704,446.13q-.76,7-5,10.74c-2.84,2.49-6.62,3.72-11.33,3.72a15.68,15.68,0,0,1-8.75-2.47,16.06,16.06,0,0,1-5.87-7,24.82,24.82,0,0,1-2.1-10.36V435A25.23,25.23,0,0,1,673,424.5a15.86,15.86,0,0,1,6-7.06,16.21,16.21,0,0,1,8.95-2.49q7.14,0,11.27,3.84T704,429.44h-3.78q-1.41-11.31-12.3-11.32a11.66,11.66,0,0,0-9.63,4.52q-3.59,4.51-3.58,12.49v5.44q0,7.69,3.49,12.27a11.25,11.25,0,0,0,9.45,4.58q5.88,0,8.87-2.82t3.7-8.47Z" transform="translate(-316.31 -402.15)"/></svg>