<svg id="Layer_1" data-name="Layer 1" xmlns="http://www.w3.org/2000/svg" viewBox="0 0 185.27 33.49"><title>logo</title><path d="M105.57,18.89,117,30.61a2,2,0,0,0,2.84,0l0,0,11.47-11.72a2,2,0,0,1,2.84,0l0,0,.1.1a2,2,0,0,1,0,2.83l-11.6,11.81a2,2,0,0,0,0,2.81l11.6,11.81a2,2,0,0,1,0,2.83l-.1.1a2,2,0,0,1-2.83,0l0,0L119.9,39.46a2,2,0,0,0-2.84,0l0,0L105.57,51.18a2,2,0,0,1-2.84,0l0,0-.1-.11a2,2,0,0,1,0-2.82l11.54-11.81a2,2,0,0,0,0-2.81L102.6,21.81a2,2,0,0,1,0-2.81l.1-.11a2,2,0,0,1,2.83,0Z" transform="translate(-101.21 -18.29)" style="fill:#fff"/><path d="M101.21,35h0a2,2,0,0,1,2-2h30.47a2,2,0,0,1,2,2h0a2,2,0,0,1-2,2H103.22a2,2,0,0,1-2-2Zm13.71-11.7a3.51,3.51,0,0,1,3.61-3.74A3.41,3.41,0,0,1,122,23.32a3.54,3.54,0,1,1-7.08,0Zm0,23.46A3.51,3.51,0,0,1,118.53,43,3.41,3.41,0,0,1,122,46.78a3.54,3.54,0,1,1-7.08,0Z" transform="translate(-101.21 -18.29)" style="fill:#fff"/><path d="M158.79,40.84a4,4,0,0,0-.63-2.29,5.39,5.39,0,0,0-2-1.67A21.54,21.54,0,0,0,152,35.4a19,19,0,0,1-4.13-1.53,5.53,5.53,0,0,1-2-1.79,4.51,4.51,0,0,1-.64-2.48,4.46,4.46,0,0,1,1.95-3.76,8.45,8.45,0,0,1,5.09-1.43,8.31,8.31,0,0,1,3.67.79,6,6,0,0,1,2.51,2.23,6,6,0,0,1,.89,3.25h-.79a5,5,0,0,0-1.74-3.93,6.61,6.61,0,0,0-4.54-1.55,7.47,7.47,0,0,0-4.52,1.25,3.78,3.78,0,0,0-1.14,5.23,3.69,3.69,0,0,0,.91,1,14.15,14.15,0,0,0,5,2.06,15.14,15.14,0,0,1,5.05,2.08,4.94,4.94,0,0,1,1.14,6.86,5.73,5.73,0,0,1-2.57,1.91,9.89,9.89,0,0,1-3.73.67,10.68,10.68,0,0,1-4.14-.77,5.61,5.61,0,0,1-3.7-5.53h.79A4.75,4.75,0,0,0,147.29,44a8.37,8.37,0,0,0,5.09,1.44A7.8,7.8,0,0,0,157,44.15,3.86,3.86,0,0,0,158.79,40.84Z" transform="translate(-101.21 -18.29)" style="fill:#fff"/><path d="M178.77,36.91a11.5,11.5,0,0,1-1,4.87A7.53,7.53,0,0,1,175,45.06a7.61,7.61,0,0,1-4.2,1.16A7.31,7.31,0,0,1,165,43.67a10.15,10.15,0,0,1-2.21-6.88V33.73a11.41,11.41,0,0,1,1-4.88,7.46,7.46,0,0,1,2.81-3.28,8.17,8.17,0,0,1,8.4,0,7.58,7.58,0,0,1,2.82,3.29,11.48,11.48,0,0,1,1,4.87ZM178,33.69a9.29,9.29,0,0,0-1.95-6.17A7.14,7.14,0,0,0,166,27.07c-.16.15-.3.29-.45.45a9.47,9.47,0,0,0-1.95,6.29v3.11a10.76,10.76,0,0,0,.88,4.48,6.76,6.76,0,0,0,2.52,3,7,7,0,0,0,3.82,1.05,6.49,6.49,0,0,0,5.26-2.32A9.6,9.6,0,0,0,178,36.8Z" transform="translate(-101.21 -18.29)" style="fill:#fff"/><path d="M195.29,35.49H184.41V45.94h-.78V24.7h13.15v.79H184.41v9.18h10.88Z" transform="translate(-101.21 -18.29)" style="fill:#fff"/><path d="M215.14,25.49H207.4V45.94h-.78V25.49h-7.73V24.7h16.25Z" transform="translate(-101.21 -18.29)" style="fill:#fff"/><path d="M233.66,39.31a7.67,7.67,0,0,1-2.39,5.13,7.94,7.94,0,0,1-5.42,1.78A7.44,7.44,0,0,1,221.67,45a7.71,7.71,0,0,1-2.81-3.35,11.82,11.82,0,0,1-1-4.95V34a11.88,11.88,0,0,1,1-5,7.59,7.59,0,0,1,2.87-3.37,7.76,7.76,0,0,1,4.3-1.19,7.59,7.59,0,0,1,5.38,1.83,7.68,7.68,0,0,1,2.3,5.09h-1.81q-.66-5.4-5.87-5.41a5.59,5.59,0,0,0-4.6,2.16,9.32,9.32,0,0,0-1.72,6v2.6a9.47,9.47,0,0,0,1.67,5.87,5.34,5.34,0,0,0,4.51,2.18,6,6,0,0,0,4.25-1.34,6.47,6.47,0,0,0,1.76-4Z" transform="translate(-101.21 -18.29)" style="fill:#fff"/><path d="M249.47,40h-9.64l-2.18,6h-1.88l8-21.23h1.71l8,21.23h-1.86Zm-9.08-1.52h8.52l-4.26-11.56Z" transform="translate(-101.21 -18.29)" style="fill:#fff"/><path d="M258.47,44.41H269v1.53H256.66V24.7h1.81Z" transform="translate(-101.21 -18.29)" style="fill:#fff"/><path d="M286.48,39.31a7.63,7.63,0,0,1-2.39,5.13,7.91,7.91,0,0,1-5.41,1.78A7.44,7.44,0,0,1,274.5,45a7.64,7.64,0,0,1-2.81-3.35,11.67,11.67,0,0,1-1-4.95V34a11.9,11.9,0,0,1,1-5,7.51,7.51,0,0,1,2.86-3.37,7.72,7.72,0,0,1,4.28-1.19,7.62,7.62,0,0,1,5.39,1.83,7.71,7.71,0,0,1,2.28,5.09h-1.81c-.45-3.6-2.4-5.4-5.87-5.41a5.61,5.61,0,0,0-4.61,2.16,9.38,9.38,0,0,0-1.71,6v2.6a9.47,9.47,0,0,0,1.67,5.87,5.34,5.34,0,0,0,4.52,2.18,6,6,0,0,0,4.24-1.34,6.47,6.47,0,0,0,1.76-4Z" transform="translate(-101.21 -18.29)" style="fill:#fff"/></svg>