<svg id="Layer_1" data-name="Layer 1" xmlns="http://www.w3.org/2000/svg" viewBox="0 0 198 198"><defs><style>.cls-1{fill:#fff;}</style></defs><title>padrao icon</title><path class="cls-1" d="M326,320a12,12,0,0,0-12,12v86h98V320Zm62.08,51.27H365.44V395.9h-6.18V371.27H337.08v-5.73h22.18V341.73h6.18v23.81h22.64Z" transform="translate(-314 -320)"/><path class="cls-1" d="M500,320H414v98h98V332A12,12,0,0,0,500,320Zm-11.32,52.2h-51v-5.85h51Z" transform="translate(-314 -320)"/><path class="cls-1" d="M414,420v98h86a12,12,0,0,0,12-12V420Zm46.77,26a4.11,4.11,0,0,1,3.17-1.22,4.27,4.27,0,0,1,3.22,1.22,4.23,4.23,0,0,1,1.18,3,4.13,4.13,0,0,1-1.18,3,4.3,4.3,0,0,1-3.22,1.2,4.14,4.14,0,0,1-3.17-1.2,4.2,4.2,0,0,1-1.12-3A4.31,4.31,0,0,1,460.77,446Zm6.39,46.71a4.33,4.33,0,0,1-3.22,1.18,4.16,4.16,0,0,1-3.17-1.18,4.1,4.1,0,0,1-1.12-3,4.31,4.31,0,0,1,1.12-3,4.08,4.08,0,0,1,3.17-1.22,4.12,4.12,0,0,1,4.4,4.24A4,4,0,0,1,467.16,492.69Zm21.87-21H438v-5.93h51Z" transform="translate(-314 -320)"/><path class="cls-1" d="M314,420v86a12,12,0,0,0,12,12h86V420Zm69.39,74.84-20.91-21.26-20.86,21.26L337,490.23l20.91-21.33-20-20.44,4.61-4.68,20,20.45,20-20.45,4.61,4.68-20,20.44L388,490.23Z" transform="translate(-314 -320)"/></svg>